<mxfile host="app.diagrams.net" modified="2023-07-12T15:40:53.273Z" agent="Mozilla/5.0 (Macintosh; Intel Mac OS X 10_15_7) AppleWebKit/537.36 (KHTML, like Gecko) Chrome/114.0.0.0 Safari/537.36" etag="7cKzt2-cM5FfMoUcZ8jc" version="21.6.2" type="github">
  <diagram name="第 1 页" id="iUtj2aXO2Zymg1x9wZ_V">
    <mxGraphModel dx="1306" dy="836" grid="1" gridSize="10" guides="1" tooltips="1" connect="1" arrows="1" fold="1" page="1" pageScale="1" pageWidth="827" pageHeight="1169" math="0" shadow="0">
      <root>
        <mxCell id="0" />
        <mxCell id="1" parent="0" />
        <mxCell id="aNzsU1oE7MEvzj8klkGJ-1" value="" style="shape=table;html=1;whiteSpace=wrap;startSize=0;container=1;collapsible=0;childLayout=tableLayout;dashed=1;" diagramCategory="misc" diagramName="Table1" vertex="1" parent="1">
          <mxGeometry x="80" y="110" width="300" height="90" as="geometry" />
        </mxCell>
        <mxCell id="aNzsU1oE7MEvzj8klkGJ-2" value="" style="shape=partialRectangle;html=1;whiteSpace=wrap;collapsible=0;dropTarget=0;pointerEvents=0;fillColor=none;top=0;left=0;bottom=0;right=0;points=[[0,0.5],[1,0.5]];portConstraint=eastwest;" vertex="1" parent="aNzsU1oE7MEvzj8klkGJ-1">
          <mxGeometry width="300" height="90" as="geometry" />
        </mxCell>
        <mxCell id="aNzsU1oE7MEvzj8klkGJ-3" value="预约排班映射" style="shape=partialRectangle;html=1;whiteSpace=wrap;connectable=0;fillColor=#CCCCCC;top=0;left=0;bottom=0;right=0;overflow=hidden;dashed=1;" vertex="1" parent="aNzsU1oE7MEvzj8klkGJ-2">
          <mxGeometry width="60" height="90" as="geometry">
            <mxRectangle width="60" height="90" as="alternateBounds" />
          </mxGeometry>
        </mxCell>
        <mxCell id="aNzsU1oE7MEvzj8klkGJ-4" value="" style="shape=partialRectangle;html=1;whiteSpace=wrap;connectable=0;fillColor=none;top=0;left=0;bottom=0;right=0;overflow=hidden;" vertex="1" parent="aNzsU1oE7MEvzj8klkGJ-2">
          <mxGeometry x="60" width="240" height="90" as="geometry">
            <mxRectangle width="240" height="90" as="alternateBounds" />
          </mxGeometry>
        </mxCell>
        <mxCell id="aNzsU1oE7MEvzj8klkGJ-5" value="" style="shape=table;html=1;whiteSpace=wrap;startSize=0;container=1;collapsible=0;childLayout=tableLayout;" diagramCategory="misc" diagramName="Table1" vertex="1" parent="1">
          <mxGeometry x="80" y="50" width="300" height="40" as="geometry" />
        </mxCell>
        <mxCell id="aNzsU1oE7MEvzj8klkGJ-6" value="" style="shape=partialRectangle;html=1;whiteSpace=wrap;collapsible=0;dropTarget=0;pointerEvents=0;fillColor=none;top=0;left=0;bottom=0;right=0;points=[[0,0.5],[1,0.5]];portConstraint=eastwest;" vertex="1" parent="aNzsU1oE7MEvzj8klkGJ-5">
          <mxGeometry width="300" height="40" as="geometry" />
        </mxCell>
        <mxCell id="aNzsU1oE7MEvzj8klkGJ-7" value="预约" style="shape=partialRectangle;html=1;whiteSpace=wrap;connectable=0;fillColor=#FFCC99;top=0;left=0;bottom=0;right=0;overflow=hidden;" vertex="1" parent="aNzsU1oE7MEvzj8klkGJ-6">
          <mxGeometry width="60" height="40" as="geometry">
            <mxRectangle width="60" height="40" as="alternateBounds" />
          </mxGeometry>
        </mxCell>
        <mxCell id="aNzsU1oE7MEvzj8klkGJ-8" value="线上咨询" style="shape=partialRectangle;html=1;whiteSpace=wrap;connectable=0;fillColor=none;top=0;left=0;bottom=0;right=0;overflow=hidden;" vertex="1" parent="aNzsU1oE7MEvzj8klkGJ-6">
          <mxGeometry x="60" width="60" height="40" as="geometry">
            <mxRectangle width="60" height="40" as="alternateBounds" />
          </mxGeometry>
        </mxCell>
        <mxCell id="aNzsU1oE7MEvzj8klkGJ-9" value="线下检查" style="shape=partialRectangle;html=1;whiteSpace=wrap;connectable=0;fillColor=none;top=0;left=0;bottom=0;right=0;overflow=hidden;" vertex="1" parent="aNzsU1oE7MEvzj8klkGJ-6">
          <mxGeometry x="120" width="60" height="40" as="geometry">
            <mxRectangle width="60" height="40" as="alternateBounds" />
          </mxGeometry>
        </mxCell>
        <mxCell id="aNzsU1oE7MEvzj8klkGJ-10" value="线上报告解读" style="shape=partialRectangle;html=1;whiteSpace=wrap;connectable=0;fillColor=none;top=0;left=0;bottom=0;right=0;overflow=hidden;" vertex="1" parent="aNzsU1oE7MEvzj8klkGJ-6">
          <mxGeometry x="180" width="60" height="40" as="geometry">
            <mxRectangle width="60" height="40" as="alternateBounds" />
          </mxGeometry>
        </mxCell>
        <mxCell id="aNzsU1oE7MEvzj8klkGJ-11" value="线下报告解读" style="shape=partialRectangle;html=1;whiteSpace=wrap;connectable=0;fillColor=none;top=0;left=0;bottom=0;right=0;overflow=hidden;" vertex="1" parent="aNzsU1oE7MEvzj8klkGJ-6">
          <mxGeometry x="240" width="60" height="40" as="geometry">
            <mxRectangle width="60" height="40" as="alternateBounds" />
          </mxGeometry>
        </mxCell>
        <mxCell id="aNzsU1oE7MEvzj8klkGJ-12" value="" style="shape=table;html=1;whiteSpace=wrap;startSize=0;container=1;collapsible=0;childLayout=tableLayout;" vertex="1" diagramCategory="misc" diagramName="Table1" parent="1">
          <mxGeometry x="80" y="220" width="240" height="40" as="geometry" />
        </mxCell>
        <mxCell id="aNzsU1oE7MEvzj8klkGJ-13" value="" style="shape=partialRectangle;html=1;whiteSpace=wrap;collapsible=0;dropTarget=0;pointerEvents=0;fillColor=none;top=0;left=0;bottom=0;right=0;points=[[0,0.5],[1,0.5]];portConstraint=eastwest;" vertex="1" parent="aNzsU1oE7MEvzj8klkGJ-12">
          <mxGeometry width="240" height="40" as="geometry" />
        </mxCell>
        <mxCell id="aNzsU1oE7MEvzj8klkGJ-14" value="排班" style="shape=partialRectangle;html=1;whiteSpace=wrap;connectable=0;fillColor=#99FFCC;top=0;left=0;bottom=0;right=0;overflow=hidden;" vertex="1" parent="aNzsU1oE7MEvzj8klkGJ-13">
          <mxGeometry width="60" height="40" as="geometry">
            <mxRectangle width="60" height="40" as="alternateBounds" />
          </mxGeometry>
        </mxCell>
        <mxCell id="aNzsU1oE7MEvzj8klkGJ-15" value="线上会议排班" style="shape=partialRectangle;html=1;whiteSpace=wrap;connectable=0;fillColor=none;top=0;left=0;bottom=0;right=0;overflow=hidden;" vertex="1" parent="aNzsU1oE7MEvzj8klkGJ-13">
          <mxGeometry x="60" width="60" height="40" as="geometry">
            <mxRectangle width="60" height="40" as="alternateBounds" />
          </mxGeometry>
        </mxCell>
        <mxCell id="aNzsU1oE7MEvzj8klkGJ-16" value="线下检查排班" style="shape=partialRectangle;html=1;whiteSpace=wrap;connectable=0;fillColor=none;top=0;left=0;bottom=0;right=0;overflow=hidden;" vertex="1" parent="aNzsU1oE7MEvzj8klkGJ-13">
          <mxGeometry x="120" width="60" height="40" as="geometry">
            <mxRectangle width="60" height="40" as="alternateBounds" />
          </mxGeometry>
        </mxCell>
        <mxCell id="aNzsU1oE7MEvzj8klkGJ-17" value="线下报告解读排班" style="shape=partialRectangle;html=1;whiteSpace=wrap;connectable=0;fillColor=none;top=0;left=0;bottom=0;right=0;overflow=hidden;" vertex="1" parent="aNzsU1oE7MEvzj8klkGJ-13">
          <mxGeometry x="180" width="60" height="40" as="geometry">
            <mxRectangle width="60" height="40" as="alternateBounds" />
          </mxGeometry>
        </mxCell>
        <mxCell id="aNzsU1oE7MEvzj8klkGJ-18" value="" style="endArrow=classic;html=1;exitX=0.294;exitY=1.037;exitDx=0;exitDy=0;exitPerimeter=0;entryX=0.369;entryY=-0.006;entryDx=0;entryDy=0;entryPerimeter=0;" edge="1" diagramCategory="general" diagramName="DirectionalConnector" parent="1" source="aNzsU1oE7MEvzj8klkGJ-6" target="aNzsU1oE7MEvzj8klkGJ-13">
          <mxGeometry width="50" height="50" relative="1" as="geometry">
            <mxPoint x="210" y="190" as="sourcePoint" />
            <mxPoint x="260" y="140" as="targetPoint" />
          </mxGeometry>
        </mxCell>
        <mxCell id="aNzsU1oE7MEvzj8klkGJ-19" value="" style="endArrow=classic;html=1;exitX=0.294;exitY=1.037;exitDx=0;exitDy=0;exitPerimeter=0;entryX=0.369;entryY=-0.006;entryDx=0;entryDy=0;entryPerimeter=0;" diagramCategory="general" diagramName="DirectionalConnector" edge="1" parent="1">
          <mxGeometry width="50" height="50" relative="1" as="geometry">
            <mxPoint x="230" y="91.72000000000003" as="sourcePoint" />
            <mxPoint x="230.3599999999999" y="220" as="targetPoint" />
          </mxGeometry>
        </mxCell>
        <mxCell id="aNzsU1oE7MEvzj8klkGJ-20" value="" style="edgeStyle=elbowEdgeStyle;elbow=vertical;endArrow=classic;html=1;entryX=0.407;entryY=0.003;entryDx=0;entryDy=0;entryPerimeter=0;exitX=0.705;exitY=0.991;exitDx=0;exitDy=0;exitPerimeter=0;" diagramName="VerticalElbow" diagramCategory="misc" edge="1" parent="1" source="aNzsU1oE7MEvzj8klkGJ-6" target="aNzsU1oE7MEvzj8klkGJ-13">
          <mxGeometry width="50" height="50" relative="1" as="geometry">
            <mxPoint x="350" y="90" as="sourcePoint" />
            <mxPoint x="200" y="210" as="targetPoint" />
          </mxGeometry>
        </mxCell>
        <mxCell id="aNzsU1oE7MEvzj8klkGJ-21" value="" style="edgeStyle=orthogonalEdgeStyle;rounded=0;orthogonalLoop=1;jettySize=auto;html=1;" edge="1" parent="1" source="aNzsU1oE7MEvzj8klkGJ-29" target="aNzsU1oE7MEvzj8klkGJ-41">
          <mxGeometry relative="1" as="geometry" />
        </mxCell>
        <mxCell id="aNzsU1oE7MEvzj8klkGJ-22" value="" style="edgeStyle=orthogonalEdgeStyle;rounded=0;orthogonalLoop=1;jettySize=auto;html=1;entryX=0;entryY=0.5;entryDx=0;entryDy=0;" edge="1" parent="1" source="aNzsU1oE7MEvzj8klkGJ-33" target="aNzsU1oE7MEvzj8klkGJ-55">
          <mxGeometry relative="1" as="geometry">
            <mxPoint x="409.9908256880733" y="515" as="targetPoint" />
          </mxGeometry>
        </mxCell>
        <mxCell id="aNzsU1oE7MEvzj8klkGJ-23" style="edgeStyle=orthogonalEdgeStyle;rounded=0;orthogonalLoop=1;jettySize=auto;html=1;exitX=1;exitY=0.5;exitDx=0;exitDy=0;entryX=0;entryY=0.75;entryDx=0;entryDy=0;" edge="1" parent="1" source="aNzsU1oE7MEvzj8klkGJ-37" target="aNzsU1oE7MEvzj8klkGJ-58">
          <mxGeometry relative="1" as="geometry" />
        </mxCell>
        <mxCell id="aNzsU1oE7MEvzj8klkGJ-24" value="" style="shape=table;html=1;whiteSpace=wrap;startSize=0;container=1;collapsible=0;childLayout=tableLayout;" vertex="1" diagramCategory="misc" diagramName="Table1" parent="1">
          <mxGeometry x="60" y="385" width="180" height="160" as="geometry" />
        </mxCell>
        <mxCell id="aNzsU1oE7MEvzj8klkGJ-25" value="" style="shape=partialRectangle;html=1;whiteSpace=wrap;collapsible=0;dropTarget=0;pointerEvents=0;fillColor=#CCCCCC;top=0;left=0;bottom=0;right=0;points=[[0,0.5],[1,0.5]];portConstraint=eastwest;" vertex="1" parent="aNzsU1oE7MEvzj8klkGJ-24">
          <mxGeometry width="180" height="40" as="geometry" />
        </mxCell>
        <mxCell id="aNzsU1oE7MEvzj8klkGJ-26" value="医生" style="shape=partialRectangle;html=1;whiteSpace=wrap;connectable=0;fillColor=none;top=0;left=0;bottom=0;right=0;overflow=hidden;" vertex="1" parent="aNzsU1oE7MEvzj8klkGJ-25">
          <mxGeometry width="60" height="40" as="geometry">
            <mxRectangle width="60" height="40" as="alternateBounds" />
          </mxGeometry>
        </mxCell>
        <mxCell id="aNzsU1oE7MEvzj8klkGJ-27" value="&lt;span style&gt;日期&lt;/span&gt;" style="shape=partialRectangle;html=1;whiteSpace=wrap;connectable=0;fillColor=none;top=0;left=0;bottom=0;right=0;overflow=hidden;" vertex="1" parent="aNzsU1oE7MEvzj8klkGJ-25">
          <mxGeometry x="60" width="60" height="40" as="geometry">
            <mxRectangle width="60" height="40" as="alternateBounds" />
          </mxGeometry>
        </mxCell>
        <mxCell id="aNzsU1oE7MEvzj8klkGJ-28" value="排班类型" style="shape=partialRectangle;html=1;whiteSpace=wrap;connectable=0;fillColor=none;top=0;left=0;bottom=0;right=0;overflow=hidden;" vertex="1" parent="aNzsU1oE7MEvzj8klkGJ-25">
          <mxGeometry x="120" width="60" height="40" as="geometry">
            <mxRectangle width="60" height="40" as="alternateBounds" />
          </mxGeometry>
        </mxCell>
        <mxCell id="aNzsU1oE7MEvzj8klkGJ-29" value="" style="shape=partialRectangle;html=1;whiteSpace=wrap;collapsible=0;dropTarget=0;pointerEvents=0;fillColor=none;top=0;left=0;bottom=0;right=0;points=[[0,0.5],[1,0.5]];portConstraint=eastwest;" vertex="1" parent="aNzsU1oE7MEvzj8klkGJ-24">
          <mxGeometry y="40" width="180" height="40" as="geometry" />
        </mxCell>
        <mxCell id="aNzsU1oE7MEvzj8klkGJ-30" value="张三" style="shape=partialRectangle;html=1;whiteSpace=wrap;connectable=0;fillColor=none;top=0;left=0;bottom=0;right=0;overflow=hidden;" vertex="1" parent="aNzsU1oE7MEvzj8klkGJ-29">
          <mxGeometry width="60" height="40" as="geometry">
            <mxRectangle width="60" height="40" as="alternateBounds" />
          </mxGeometry>
        </mxCell>
        <mxCell id="aNzsU1oE7MEvzj8klkGJ-31" value="5月4日" style="shape=partialRectangle;html=1;whiteSpace=wrap;connectable=0;fillColor=none;top=0;left=0;bottom=0;right=0;overflow=hidden;" vertex="1" parent="aNzsU1oE7MEvzj8klkGJ-29">
          <mxGeometry x="60" width="60" height="40" as="geometry">
            <mxRectangle width="60" height="40" as="alternateBounds" />
          </mxGeometry>
        </mxCell>
        <mxCell id="aNzsU1oE7MEvzj8klkGJ-32" value="线上会议" style="shape=partialRectangle;html=1;whiteSpace=wrap;connectable=0;fillColor=none;top=0;left=0;bottom=0;right=0;overflow=hidden;" vertex="1" parent="aNzsU1oE7MEvzj8klkGJ-29">
          <mxGeometry x="120" width="60" height="40" as="geometry">
            <mxRectangle width="60" height="40" as="alternateBounds" />
          </mxGeometry>
        </mxCell>
        <mxCell id="aNzsU1oE7MEvzj8klkGJ-33" value="" style="shape=partialRectangle;html=1;whiteSpace=wrap;collapsible=0;dropTarget=0;pointerEvents=0;fillColor=none;top=0;left=0;bottom=0;right=0;points=[[0,0.5],[1,0.5]];portConstraint=eastwest;" vertex="1" parent="aNzsU1oE7MEvzj8klkGJ-24">
          <mxGeometry y="80" width="180" height="40" as="geometry" />
        </mxCell>
        <mxCell id="aNzsU1oE7MEvzj8klkGJ-34" value="李四" style="shape=partialRectangle;html=1;whiteSpace=wrap;connectable=0;fillColor=none;top=0;left=0;bottom=0;right=0;overflow=hidden;" vertex="1" parent="aNzsU1oE7MEvzj8klkGJ-33">
          <mxGeometry width="60" height="40" as="geometry">
            <mxRectangle width="60" height="40" as="alternateBounds" />
          </mxGeometry>
        </mxCell>
        <mxCell id="aNzsU1oE7MEvzj8klkGJ-35" value="5月4日" style="shape=partialRectangle;html=1;whiteSpace=wrap;connectable=0;fillColor=none;top=0;left=0;bottom=0;right=0;overflow=hidden;" vertex="1" parent="aNzsU1oE7MEvzj8klkGJ-33">
          <mxGeometry x="60" width="60" height="40" as="geometry">
            <mxRectangle width="60" height="40" as="alternateBounds" />
          </mxGeometry>
        </mxCell>
        <mxCell id="aNzsU1oE7MEvzj8klkGJ-36" value="线下检查" style="shape=partialRectangle;html=1;whiteSpace=wrap;connectable=0;fillColor=none;top=0;left=0;bottom=0;right=0;overflow=hidden;" vertex="1" parent="aNzsU1oE7MEvzj8klkGJ-33">
          <mxGeometry x="120" width="60" height="40" as="geometry">
            <mxRectangle width="60" height="40" as="alternateBounds" />
          </mxGeometry>
        </mxCell>
        <mxCell id="aNzsU1oE7MEvzj8klkGJ-37" style="shape=partialRectangle;html=1;whiteSpace=wrap;collapsible=0;dropTarget=0;pointerEvents=0;fillColor=none;top=0;left=0;bottom=0;right=0;points=[[0,0.5],[1,0.5]];portConstraint=eastwest;" vertex="1" parent="aNzsU1oE7MEvzj8klkGJ-24">
          <mxGeometry y="120" width="180" height="40" as="geometry" />
        </mxCell>
        <mxCell id="aNzsU1oE7MEvzj8klkGJ-38" value="张三" style="shape=partialRectangle;html=1;whiteSpace=wrap;connectable=0;fillColor=none;top=0;left=0;bottom=0;right=0;overflow=hidden;" vertex="1" parent="aNzsU1oE7MEvzj8klkGJ-37">
          <mxGeometry width="60" height="40" as="geometry">
            <mxRectangle width="60" height="40" as="alternateBounds" />
          </mxGeometry>
        </mxCell>
        <mxCell id="aNzsU1oE7MEvzj8klkGJ-39" value="5月4日" style="shape=partialRectangle;html=1;whiteSpace=wrap;connectable=0;fillColor=none;top=0;left=0;bottom=0;right=0;overflow=hidden;" vertex="1" parent="aNzsU1oE7MEvzj8klkGJ-37">
          <mxGeometry x="60" width="60" height="40" as="geometry">
            <mxRectangle width="60" height="40" as="alternateBounds" />
          </mxGeometry>
        </mxCell>
        <mxCell id="aNzsU1oE7MEvzj8klkGJ-40" value="线下检查" style="shape=partialRectangle;html=1;whiteSpace=wrap;connectable=0;fillColor=none;top=0;left=0;bottom=0;right=0;overflow=hidden;" vertex="1" parent="aNzsU1oE7MEvzj8klkGJ-37">
          <mxGeometry x="120" width="60" height="40" as="geometry">
            <mxRectangle width="60" height="40" as="alternateBounds" />
          </mxGeometry>
        </mxCell>
        <mxCell id="aNzsU1oE7MEvzj8klkGJ-41" value="" style="shape=table;html=1;whiteSpace=wrap;startSize=0;container=1;collapsible=0;childLayout=tableLayout;" vertex="1" diagramCategory="misc" diagramName="Table1" parent="1">
          <mxGeometry x="340" y="345" width="150" height="90" as="geometry" />
        </mxCell>
        <mxCell id="aNzsU1oE7MEvzj8klkGJ-42" value="" style="shape=partialRectangle;html=1;whiteSpace=wrap;collapsible=0;dropTarget=0;pointerEvents=0;fillColor=#CCCCCC;top=0;left=0;bottom=0;right=0;points=[[0,0.5],[1,0.5]];portConstraint=eastwest;" vertex="1" parent="aNzsU1oE7MEvzj8klkGJ-41">
          <mxGeometry width="150" height="30" as="geometry" />
        </mxCell>
        <mxCell id="aNzsU1oE7MEvzj8klkGJ-43" value="&lt;span style&gt;时间&lt;/span&gt;" style="shape=partialRectangle;html=1;whiteSpace=wrap;connectable=0;fillColor=none;top=0;left=0;bottom=0;right=0;overflow=hidden;" vertex="1" parent="aNzsU1oE7MEvzj8klkGJ-42">
          <mxGeometry width="75" height="30" as="geometry">
            <mxRectangle width="75" height="30" as="alternateBounds" />
          </mxGeometry>
        </mxCell>
        <mxCell id="aNzsU1oE7MEvzj8klkGJ-44" value="剩余号源" style="shape=partialRectangle;html=1;whiteSpace=wrap;connectable=0;fillColor=none;top=0;left=0;bottom=0;right=0;overflow=hidden;" vertex="1" parent="aNzsU1oE7MEvzj8klkGJ-42">
          <mxGeometry x="75" width="75" height="30" as="geometry">
            <mxRectangle width="75" height="30" as="alternateBounds" />
          </mxGeometry>
        </mxCell>
        <mxCell id="aNzsU1oE7MEvzj8klkGJ-45" value="" style="shape=partialRectangle;html=1;whiteSpace=wrap;collapsible=0;dropTarget=0;pointerEvents=0;fillColor=none;top=0;left=0;bottom=0;right=0;points=[[0,0.5],[1,0.5]];portConstraint=eastwest;" vertex="1" parent="aNzsU1oE7MEvzj8klkGJ-41">
          <mxGeometry y="30" width="150" height="30" as="geometry" />
        </mxCell>
        <mxCell id="aNzsU1oE7MEvzj8klkGJ-46" value="10:30-11:00" style="shape=partialRectangle;html=1;whiteSpace=wrap;connectable=0;fillColor=none;top=0;left=0;bottom=0;right=0;overflow=hidden;" vertex="1" parent="aNzsU1oE7MEvzj8klkGJ-45">
          <mxGeometry width="75" height="30" as="geometry">
            <mxRectangle width="75" height="30" as="alternateBounds" />
          </mxGeometry>
        </mxCell>
        <mxCell id="aNzsU1oE7MEvzj8klkGJ-47" value="1" style="shape=partialRectangle;html=1;whiteSpace=wrap;connectable=0;fillColor=none;top=0;left=0;bottom=0;right=0;overflow=hidden;" vertex="1" parent="aNzsU1oE7MEvzj8klkGJ-45">
          <mxGeometry x="75" width="75" height="30" as="geometry">
            <mxRectangle width="75" height="30" as="alternateBounds" />
          </mxGeometry>
        </mxCell>
        <mxCell id="aNzsU1oE7MEvzj8klkGJ-48" value="" style="shape=partialRectangle;html=1;whiteSpace=wrap;collapsible=0;dropTarget=0;pointerEvents=0;fillColor=none;top=0;left=0;bottom=0;right=0;points=[[0,0.5],[1,0.5]];portConstraint=eastwest;" vertex="1" parent="aNzsU1oE7MEvzj8klkGJ-41">
          <mxGeometry y="60" width="150" height="30" as="geometry" />
        </mxCell>
        <mxCell id="aNzsU1oE7MEvzj8klkGJ-49" value="11:30-12:00" style="shape=partialRectangle;html=1;whiteSpace=wrap;connectable=0;fillColor=none;top=0;left=0;bottom=0;right=0;overflow=hidden;" vertex="1" parent="aNzsU1oE7MEvzj8klkGJ-48">
          <mxGeometry width="75" height="30" as="geometry">
            <mxRectangle width="75" height="30" as="alternateBounds" />
          </mxGeometry>
        </mxCell>
        <mxCell id="aNzsU1oE7MEvzj8klkGJ-50" value="1" style="shape=partialRectangle;html=1;whiteSpace=wrap;connectable=0;fillColor=none;top=0;left=0;bottom=0;right=0;overflow=hidden;" vertex="1" parent="aNzsU1oE7MEvzj8klkGJ-48">
          <mxGeometry x="75" width="75" height="30" as="geometry">
            <mxRectangle width="75" height="30" as="alternateBounds" />
          </mxGeometry>
        </mxCell>
        <mxCell id="aNzsU1oE7MEvzj8klkGJ-51" value="" style="shape=table;html=1;whiteSpace=wrap;startSize=0;container=1;collapsible=0;childLayout=tableLayout;" diagramName="Table1" vertex="1" diagramCategory="misc" parent="1">
          <mxGeometry x="340" y="455" width="150" height="60" as="geometry" />
        </mxCell>
        <mxCell id="aNzsU1oE7MEvzj8klkGJ-52" value="" style="shape=partialRectangle;html=1;whiteSpace=wrap;collapsible=0;dropTarget=0;pointerEvents=0;fillColor=#CCCCCC;top=0;left=0;bottom=0;right=0;points=[[0,0.5],[1,0.5]];portConstraint=eastwest;" vertex="1" parent="aNzsU1oE7MEvzj8klkGJ-51">
          <mxGeometry width="150" height="30" as="geometry" />
        </mxCell>
        <mxCell id="aNzsU1oE7MEvzj8klkGJ-53" value="&lt;span style&gt;时间&lt;/span&gt;" style="shape=partialRectangle;html=1;whiteSpace=wrap;connectable=0;fillColor=none;top=0;left=0;bottom=0;right=0;overflow=hidden;" vertex="1" parent="aNzsU1oE7MEvzj8klkGJ-52">
          <mxGeometry width="75" height="30" as="geometry">
            <mxRectangle width="75" height="30" as="alternateBounds" />
          </mxGeometry>
        </mxCell>
        <mxCell id="aNzsU1oE7MEvzj8klkGJ-54" value="剩余号源" style="shape=partialRectangle;html=1;whiteSpace=wrap;connectable=0;fillColor=none;top=0;left=0;bottom=0;right=0;overflow=hidden;" vertex="1" parent="aNzsU1oE7MEvzj8klkGJ-52">
          <mxGeometry x="75" width="75" height="30" as="geometry">
            <mxRectangle width="75" height="30" as="alternateBounds" />
          </mxGeometry>
        </mxCell>
        <mxCell id="aNzsU1oE7MEvzj8klkGJ-55" value="" style="shape=partialRectangle;html=1;whiteSpace=wrap;collapsible=0;dropTarget=0;pointerEvents=0;fillColor=none;top=0;left=0;bottom=0;right=0;points=[[0,0.5],[1,0.5]];portConstraint=eastwest;" vertex="1" parent="aNzsU1oE7MEvzj8klkGJ-51">
          <mxGeometry y="30" width="150" height="30" as="geometry" />
        </mxCell>
        <mxCell id="aNzsU1oE7MEvzj8klkGJ-56" value="10:30-11:00" style="shape=partialRectangle;html=1;whiteSpace=wrap;connectable=0;fillColor=none;top=0;left=0;bottom=0;right=0;overflow=hidden;" vertex="1" parent="aNzsU1oE7MEvzj8klkGJ-55">
          <mxGeometry width="75" height="30" as="geometry">
            <mxRectangle width="75" height="30" as="alternateBounds" />
          </mxGeometry>
        </mxCell>
        <mxCell id="aNzsU1oE7MEvzj8klkGJ-57" value="2" style="shape=partialRectangle;html=1;whiteSpace=wrap;connectable=0;fillColor=none;top=0;left=0;bottom=0;right=0;overflow=hidden;" vertex="1" parent="aNzsU1oE7MEvzj8klkGJ-55">
          <mxGeometry x="75" width="75" height="30" as="geometry">
            <mxRectangle width="75" height="30" as="alternateBounds" />
          </mxGeometry>
        </mxCell>
        <mxCell id="aNzsU1oE7MEvzj8klkGJ-58" value="" style="shape=table;html=1;whiteSpace=wrap;startSize=0;container=1;collapsible=0;childLayout=tableLayout;" diagramCategory="misc" diagramName="Table1" vertex="1" parent="1">
          <mxGeometry x="340" y="525" width="150" height="60" as="geometry" />
        </mxCell>
        <mxCell id="aNzsU1oE7MEvzj8klkGJ-59" value="" style="shape=partialRectangle;html=1;whiteSpace=wrap;collapsible=0;dropTarget=0;pointerEvents=0;fillColor=#CCCCCC;top=0;left=0;bottom=0;right=0;points=[[0,0.5],[1,0.5]];portConstraint=eastwest;" vertex="1" parent="aNzsU1oE7MEvzj8klkGJ-58">
          <mxGeometry width="150" height="30" as="geometry" />
        </mxCell>
        <mxCell id="aNzsU1oE7MEvzj8klkGJ-60" value="&lt;span style&gt;时间&lt;/span&gt;" style="shape=partialRectangle;html=1;whiteSpace=wrap;connectable=0;fillColor=none;top=0;left=0;bottom=0;right=0;overflow=hidden;" vertex="1" parent="aNzsU1oE7MEvzj8klkGJ-59">
          <mxGeometry width="75" height="30" as="geometry">
            <mxRectangle width="75" height="30" as="alternateBounds" />
          </mxGeometry>
        </mxCell>
        <mxCell id="aNzsU1oE7MEvzj8klkGJ-61" value="剩余号源" style="shape=partialRectangle;html=1;whiteSpace=wrap;connectable=0;fillColor=none;top=0;left=0;bottom=0;right=0;overflow=hidden;" vertex="1" parent="aNzsU1oE7MEvzj8klkGJ-59">
          <mxGeometry x="75" width="75" height="30" as="geometry">
            <mxRectangle width="75" height="30" as="alternateBounds" />
          </mxGeometry>
        </mxCell>
        <mxCell id="aNzsU1oE7MEvzj8klkGJ-62" value="" style="shape=partialRectangle;html=1;whiteSpace=wrap;collapsible=0;dropTarget=0;pointerEvents=0;fillColor=none;top=0;left=0;bottom=0;right=0;points=[[0,0.5],[1,0.5]];portConstraint=eastwest;" vertex="1" parent="aNzsU1oE7MEvzj8klkGJ-58">
          <mxGeometry y="30" width="150" height="30" as="geometry" />
        </mxCell>
        <mxCell id="aNzsU1oE7MEvzj8klkGJ-63" value="09:30-10:00" style="shape=partialRectangle;html=1;whiteSpace=wrap;connectable=0;fillColor=none;top=0;left=0;bottom=0;right=0;overflow=hidden;" vertex="1" parent="aNzsU1oE7MEvzj8klkGJ-62">
          <mxGeometry width="75" height="30" as="geometry">
            <mxRectangle width="75" height="30" as="alternateBounds" />
          </mxGeometry>
        </mxCell>
        <mxCell id="aNzsU1oE7MEvzj8klkGJ-64" value="2" style="shape=partialRectangle;html=1;whiteSpace=wrap;connectable=0;fillColor=none;top=0;left=0;bottom=0;right=0;overflow=hidden;" vertex="1" parent="aNzsU1oE7MEvzj8klkGJ-62">
          <mxGeometry x="75" width="75" height="30" as="geometry">
            <mxRectangle width="75" height="30" as="alternateBounds" />
          </mxGeometry>
        </mxCell>
        <mxCell id="aNzsU1oE7MEvzj8klkGJ-65" value="" style="edgeStyle=elbowEdgeStyle;elbow=vertical;endArrow=classic;html=1;entryX=0.876;entryY=0.002;entryDx=0;entryDy=0;entryPerimeter=0;exitX=0.908;exitY=1.001;exitDx=0;exitDy=0;exitPerimeter=0;" diagramCategory="misc" diagramName="VerticalElbow" edge="1" parent="1" source="aNzsU1oE7MEvzj8klkGJ-6" target="aNzsU1oE7MEvzj8klkGJ-13">
          <mxGeometry width="50" height="50" relative="1" as="geometry">
            <mxPoint x="320" y="100" as="sourcePoint" />
            <mxPoint x="270" y="150" as="targetPoint" />
          </mxGeometry>
        </mxCell>
      </root>
    </mxGraphModel>
  </diagram>
</mxfile>
